<svg
   xmlns="http://www.w3.org/2000/svg"
   id="svg4877"
   version="1.2"
   viewBox="0 0 243.177 45.365002"
   height="45.365002pt"
   width="243.177pt">
  <metadata
     id="metadata4883">
    <rdf:RDF>
      <cc:Work
         rdf:about="">
        <dc:format>image/svg+xml</dc:format>
        <dc:type
           rdf:resource="http://purl.org/dc/dcmitype/StillImage" />
        <dc:title></dc:title>
      </cc:Work>
    </rdf:RDF>
  </metadata>
  <defs
     id="defs4881" />
  <path
     d="m 18.410825,24.868236 v -7.55469 c 0,-5.05469 -4.80078,-7.23047 -8.6093804,-7.23047 -3.80468,0 -8.54297,2.17578 -8.54297,7.23047 v 7.55469 c 0,5.05469 4.73829,7.23047 8.54297,7.23047 3.8086004,0 8.6093804,-2.17578 8.6093804,-7.23047 m -5.02344,-0.44922 c 0,2.04687 -1.47266,3.23047 -3.5859404,3.23047 -2.07812,0 -3.55078,-1.1836 -3.55078,-3.23047 v -6.65625 c 0,-2.04688 1.47266,-3.23047 3.55078,-3.23047 2.1132804,0 3.5859404,1.18359 3.5859404,3.23047 z m 0,0"
     id="path4808" />
  <path
     d="m 39.852225,16.321356 c 0,-3.00781 -2.24218,-5.78906 -7.45703,-5.78906 h -8.96093 c -0.73438,0 -0.92579,0.35156 -0.92579,0.92578 v 19.23438 c 0,0.57422 0.19141,0.92578 0.92579,0.92578 h 9.41015 c 4.44531,0 7.61328,-2.07813 7.61328,-6.14453 0,-3.45313 -2.6875,-4.67188 -2.9414,-4.76563 0.28515,-0.1289 2.33593,-1.15234 2.33593,-4.38672 m -8.80078,3.36328 v 2.42969 c 0,0.57813 0.19141,0.92969 0.92578,0.92969 h 0.73829 c 1.53515,0 2.65625,0.44531 2.65625,1.94922 0,1.4414 -0.89844,2.08203 -2.46485,2.08203 h -5.375 v -12.03125 h 4.86328 c 1.66407,0 2.65625,0.35156 2.65625,1.78906 0,1.25 -0.80078,1.92188 -2.65625,1.92188 h -0.41797 c -0.73437,0 -0.92578,0.35156 -0.92578,0.92968"
     id="path4810" />
  <path
     d="m 57.610045,10.403386 h -9.69532 c -0.76953,0 -0.92968,0.35157 -0.92968,0.92579 v 2.65625 c 0,0.57812 0.16015,0.92968 0.92968,0.92968 h 5.60157 v 9.1211 c 0,1.98437 -0.80078,3.13672 -2.91407,3.13672 -1.4414,0 -2.46484,-0.76954 -2.55859,-2.65625 0,-0.16016 -0.0664,-0.67188 -0.80078,-0.67188 h -3.39063 c -0.73828,0 -0.76953,0.70313 -0.76953,0.86328 0,4.51172 3.26563,6.91016 7.51953,6.91016 3.8086,0 7.9375,-1.88672 7.9375,-6.87891 v -13.41015 c 0,-0.57422 -0.1914,-0.92579 -0.92968,-0.92579"
     id="path4812" />
  <path
     d="m 78.313165,27.137766 h -10.20703 v -4.22266 h 8.57422 c 0.73828,0 0.92969,-0.35156 0.92969,-0.92968 v -2.4961 c 0,-0.57422 -0.19141,-0.92578 -0.92969,-0.92578 h -8.57422 v -3.48828 h 9.66406 c 0.73438,0 0.92969,-0.35156 0.92969,-0.92969 v -2.65625 c 0,-0.57422 -0.19531,-0.92578 -0.92969,-0.92578 h -13.79297 c -0.73437,0 -0.92578,0.35156 -0.92578,0.92578 v 19.20313 c 0,0.57422 0.19141,0.92578 0.92578,0.92578 h 14.33594 c 0.73828,0 0.92969,-0.35156 0.92969,-0.92578 v -2.625 c 0,-0.57813 -0.19141,-0.92969 -0.92969,-0.92969"
     id="path4814" />
  <path
     d="m 99.336605,25.379956 c 0,-0.76953 -0.25391,-1.08985 -0.95703,-1.08985 h -3.13672 c -0.70313,0 -0.76953,0.51172 -0.86328,1.15235 -0.25781,1.53515 -1.63281,2.17578 -3.36328,2.17578 -2.10938,0 -3.55078,-1.15235 -3.55078,-3.19922 v -6.65625 c 0,-2.01563 1.4414,-3.19922 3.55078,-3.19922 1.73047,0 2.625,0.48047 3.29687,1.53516 0.25781,0.38281 0.28906,0.99218 0.96094,0.99218 h 3.07031 c 0.73828,0 0.99219,-0.16015 0.99219,-0.92968 -0.41406,-4.0625 -4.35156,-6.07813 -8.32031,-6.07813 -3.80469,0 -8.57422,2.20703 -8.57422,7.23047 v 7.55469 c 0,5.02344 4.76953,7.23047 8.57422,7.23047 3.96875,0 8.32031,-2.58985 8.32031,-6.71875"
     id="path4816" />
  <path
     d="m 117.57879,10.563546 h -14.84766 c -0.73828,0 -0.92969,0.35156 -0.92969,0.92578 v 2.65625 c 0,0.57813 0.19141,0.92969 0.92969,0.92969 h 4.92578 v 15.61719 c 0,0.73437 0.35156,0.92578 0.92969,0.92578 h 3.16797 c 0.57422,0 0.92578,-0.19141 0.92578,-0.92578 v -15.61719 h 4.89844 c 0.73437,0 0.92578,-0.35156 0.92578,-0.92969 v -2.65625 c 0,-0.57422 -0.19141,-0.92578 -0.92578,-0.92578"
     id="path4818" />
  <path
     d="m 136.96941,27.137766 h -10.20703 v -4.22266 h 8.57422 c 0.73828,0 0.92969,-0.35156 0.92969,-0.92968 v -2.4961 c 0,-0.57422 -0.19141,-0.92578 -0.92969,-0.92578 h -8.57422 v -3.48828 h 9.66406 c 0.73438,0 0.92578,-0.35156 0.92578,-0.92969 v -2.65625 c 0,-0.57422 -0.1914,-0.92578 -0.92578,-0.92578 h -13.79297 c -0.73437,0 -0.92968,0.35156 -0.92968,0.92578 v 19.20313 c 0,0.57422 0.19531,0.92578 0.92968,0.92578 h 14.33594 c 0.73438,0 0.92969,-0.35156 0.92969,-0.92578 v -2.625 c 0,-0.57813 -0.19531,-0.92969 -0.92969,-0.92969"
     id="path4820" />
  <path
     d="m 159.87957,30.723706 -7.07031,-19.16797 c -0.28907,-0.67188 -0.60938,-0.99219 -1.3125,-0.99219 h -3.07032 c -0.70703,0 -1.05859,0.32031 -1.3125,0.99219 l -7.10547,19.16797 c -0.16015,0.38281 -0.16015,0.89453 0.54297,0.89453 h 3.36328 c 0.70313,0 0.95704,-0.19141 1.21485,-0.96094 l 0.89453,-2.52734 h 7.83984 l 0.89844,2.52734 c 0.25391,0.76953 0.51172,0.96094 1.21484,0.96094 h 3.35938 c 0.70312,0 0.70312,-0.51172 0.54297,-0.89453 m -7.51953,-7.07422 h -4.79688 l 2.39844,-7.07031 z m 0,0"
     id="path4822" />
  <path
     d="m 181.61004,10.532296 h -3.07422 c -1.05469,0 -1.21485,0.70313 -1.4375,1.08594 l -4.41797,7.87109 -4.38281,-7.87109 c -0.25782,-0.38281 -0.38282,-1.08594 -1.47266,-1.08594 h -3.16797 c -0.73437,0 -0.92578,0.35156 -0.92578,0.92578 v 19.23438 c 0,0.73437 0.35156,0.92578 0.92578,0.92578 h 3.16797 c 0.57813,0 0.92969,-0.19141 0.92969,-0.92578 v -10.84766 l 3.23047,5.59766 c 0.16015,0.25781 0.41797,0.67187 0.89453,0.67187 h 1.60156 c 0.48047,0 0.76953,-0.41406 0.92969,-0.67187 l 3.19922,-5.59766 v 10.84766 c 0,0.73437 0.35156,0.92578 0.92578,0.92578 h 3.07422 c 0.57422,0 0.92578,-0.19141 0.92578,-0.92578 v -19.23438 c 0,-0.57422 -0.19141,-0.92578 -0.92578,-0.92578"
     id="path4824" />
  <path
     d="m 7.1061346,36.610426 c -0.26562,-0.10157 -0.51562,-0.16797 -0.75,-0.20704 -0.23437,-0.0391 -0.51953,-0.0586 -0.85547,-0.0586 -0.51172,0 -0.96875,0.0977 -1.375,0.28906 -0.40625,0.19532 -0.74609,0.46485 -1.01953,0.81641 -0.27344,0.34766 -0.48047,0.75781 -0.62109,1.22656 -0.13672,0.46875 -0.20703,0.98828 -0.20703,1.55469 0,0.56641 0.0703,1.08594 0.20703,1.55859 0.14062,0.47266 0.34765,0.87891 0.62109,1.22266 0.27344,0.34375 0.60938,0.60937 1.00391,0.79687 0.39453,0.19141 0.85156,0.28516 1.36718,0.28516 0.31641,0 0.60157,-0.0195 0.85938,-0.0625 0.25391,-0.043 0.51172,-0.10937 0.76953,-0.19922 l -0.17578,-0.76562 c -0.13672,0.0625 -0.32422,0.12109 -0.57031,0.17578 -0.2461,0.0586 -0.52735,0.0859 -0.84766,0.0859 -0.35937,0 -0.68359,-0.082 -0.97266,-0.2461 -0.28906,-0.16401 -0.53515,-0.38667 -0.73437,-0.66401 -0.19922,-0.27734 -0.35547,-0.60156 -0.46094,-0.97656 -0.10937,-0.3711 -0.16406,-0.77344 -0.16406,-1.19922 0,-0.46485 0.0547,-0.88281 0.16406,-1.26172 0.10547,-0.37891 0.26172,-0.70703 0.46094,-0.98828 0.19922,-0.27735 0.44531,-0.4961 0.73828,-0.64844 0.29688,-0.15625 0.61719,-0.23047 0.96875,-0.23047 0.24219,0 0.46875,0.0195 0.67578,0.0625 0.20703,0.0391 0.42188,0.1211 0.64453,0.24219 z m 0,0"
     id="path4826" />
  <path
     d="m 11.969415,40.219796 v -0.0195 c 0.45313,-0.12109 0.80078,-0.33203 1.03125,-0.64063 0.23828,-0.30859 0.35547,-0.67578 0.35547,-1.10156 0,-0.35156 -0.0625,-0.65625 -0.1875,-0.91015 -0.12109,-0.25391 -0.28125,-0.46094 -0.48047,-0.61329 -0.19922,-0.15234 -0.44922,-0.26953 -0.74609,-0.34765 -0.29688,-0.0781 -0.60547,-0.11328 -0.91797,-0.11328 H 8.6491046 v 7.49609 h 0.91406 v -3.37109 h 1.0000004 c 0.29297,0 0.52735,0.0195 0.70703,0.0586 0.17969,0.0391 0.32422,0.10156 0.44141,0.19141 0.11328,0.0937 0.20703,0.21093 0.27734,0.35937 0.0703,0.14453 0.14063,0.33985 0.21094,0.57813 0.0352,0.125 0.0781,0.28125 0.12891,0.47265 0.0547,0.1875 0.10547,0.38282 0.16015,0.58594 0.0508,0.20313 0.10547,0.40625 0.15625,0.60547 0.0547,0.19922 0.10157,0.37109 0.14063,0.51953 h 0.97656 c -0.125,-0.41406 -0.24219,-0.80078 -0.35547,-1.16797 -0.11328,-0.36328 -0.22656,-0.7539 -0.34765,-1.17578 -0.13282,-0.45312 -0.27344,-0.78516 -0.42579,-0.99219 -0.14843,-0.20703 -0.37109,-0.34375 -0.66406,-0.41406 m -1.16797,-0.38672 H 9.5631646 v -2.59375 h 1.3007804 c 0.19922,0 0.38672,0.0156 0.57032,0.0469 0.17968,0.0312 0.34765,0.0937 0.5039,0.18359 0.15235,0.0898 0.27344,0.21875 0.36719,0.38672 0.0898,0.17187 0.13672,0.38672 0.13672,0.65234 0,0.44141 -0.14453,0.77344 -0.42578,0.99219 -0.28516,0.21875 -0.6875,0.33203 -1.21485,0.33203"
     id="path4828" />
  <path
     d="m 19.969415,43.969796 -2.26953,-7.49609 h -1.08984 l -2.26953,7.49609 h 0.89453 l 0.64062,-2.24609 h 2.52735 l 0.66406,2.24609 z m -1.74219,-3.01562 h -2.17578 l 1.09375,-3.78907 z m 0,0"
     id="path4830" />
  <path
     d="m 21.629575,43.969796 h 0.91406 v -3.47656 h 3.16797 v -0.76563 h -3.16797 v -2.48828 h 3.34766 v -0.76562 h -4.26172 z m 0,0"
     id="path4832" />
  <path
     d="m 29.324885,43.969796 h 0.91406 v -6.73047 h 2.20313 v -0.76562 h -5.375 v 0.76562 h 2.25781 z m 0,0"
     id="path4834" />
  <path
     d="m 38.113945,36.661206 c -0.26562,-0.10547 -0.55859,-0.1836 -0.8789,-0.23438 -0.31641,-0.0547 -0.64453,-0.082 -0.98047,-0.082 -0.28906,0 -0.57422,0.0391 -0.85547,0.11719 -0.28516,0.0781 -0.54688,0.19531 -0.78516,0.35156 -0.23437,0.15625 -0.42968,0.36328 -0.57422,0.61328 -0.14843,0.25391 -0.22265,0.55078 -0.22265,0.89453 0,0.4961 0.16015,0.91407 0.47265,1.25391 0.31641,0.33984 0.80079,0.64062 1.44922,0.89844 0.29297,0.11718 0.55078,0.23047 0.76563,0.33984 0.21875,0.10938 0.40234,0.22656 0.55859,0.35156 0.15235,0.125 0.26953,0.26563 0.35156,0.41407 0.082,0.15234 0.1211,0.32031 0.1211,0.51171 0,0.21094 -0.0391,0.39063 -0.1211,0.55079 -0.082,0.15625 -0.1914,0.28515 -0.33593,0.38671 -0.14453,0.10157 -0.3125,0.17579 -0.50391,0.22657 -0.19141,0.0508 -0.40234,0.0742 -0.625,0.0742 -0.29297,0 -0.61719,-0.0391 -0.96484,-0.11719 -0.35157,-0.0742 -0.69922,-0.19922 -1.04297,-0.36719 l -0.23047,0.78906 c 0.35937,0.16016 0.73437,0.27735 1.125,0.35157 0.39062,0.0742 0.75781,0.10937 1.09375,0.10937 0.32031,0 0.62891,-0.0391 0.92187,-0.11719 0.29297,-0.0742 0.5625,-0.19531 0.79688,-0.35937 0.23828,-0.16406 0.43359,-0.37891 0.57812,-0.64063 0.14844,-0.26172 0.22266,-0.57812 0.22266,-0.95312 0,-0.29297 -0.0469,-0.55078 -0.13672,-0.76953 -0.0937,-0.22266 -0.22656,-0.42188 -0.41015,-0.59766 -0.1836,-0.17969 -0.40235,-0.33984 -0.66797,-0.48437 -0.26172,-0.14454 -0.57422,-0.28516 -0.9375,-0.42579 -0.29688,-0.10937 -0.54297,-0.22265 -0.74219,-0.33203 -0.19922,-0.10547 -0.35938,-0.21875 -0.48438,-0.33593 -0.12109,-0.11329 -0.20703,-0.23829 -0.26171,-0.3711 -0.0508,-0.13281 -0.0781,-0.28125 -0.0781,-0.44922 0,-0.21093 0.0469,-0.39062 0.13672,-0.54297 0.0898,-0.14843 0.21094,-0.26953 0.35156,-0.35546 0.14453,-0.0899 0.30469,-0.15235 0.48438,-0.19141 0.17968,-0.0352 0.35937,-0.0586 0.53906,-0.0586 0.57422,0 1.125,0.10937 1.64844,0.3164 z m 0,0"
     id="path4836" />
  <path
     d="m 48.317075,38.258856 v 2.07813 h -2.10938 v 0.64844 h 2.10938 v 2.22656 h 0.68359 v -2.22656 h 2.10156 v -0.64844 h -2.10156 v -2.07813 z m 0,0"
     id="path4838" />
  <path
     d="m 64.078795,40.219796 c 0,-0.57422 -0.0781,-1.09375 -0.23047,-1.55859 -0.15625,-0.46485 -0.38281,-0.85938 -0.6836,-1.17969 -0.30078,-0.32422 -0.67187,-0.57031 -1.11718,-0.74609 -0.44532,-0.17579 -0.95703,-0.26172 -1.53907,-0.26172 h -1.71093 v 7.49609 h 1.71093 c 0.57422,0 1.08204,-0.0859 1.52735,-0.25781 0.44531,-0.17188 0.82031,-0.42188 1.125,-0.7461 0.30469,-0.32421 0.53125,-0.71875 0.6875,-1.17968 0.15234,-0.46094 0.23047,-0.98438 0.23047,-1.56641 m -0.91407,0 c 0,0.96484 -0.23046,1.70703 -0.69921,2.21484 -0.46485,0.51172 -1.16407,0.76954 -2.09375,0.76954 h -0.66016 v -5.96485 h 0.66016 c 0.95312,0.008 1.65625,0.26953 2.10937,0.79297 0.45703,0.51953 0.68359,1.25 0.68359,2.1875"
     id="path4840" />
  <path
     d="m 65.516295,43.969796 h 4.43359 v -0.76562 h -3.51953 v -2.71094 h 3.18359 v -0.76563 h -3.18359 v -2.48828 h 3.43359 v -0.76562 h -4.34765 z m 0,0"
     id="path4842" />
  <path
     d="m 75.910825,36.661206 c -0.26563,-0.10547 -0.55469,-0.1836 -0.875,-0.23438 -0.32031,-0.0547 -0.64844,-0.082 -0.98438,-0.082 -0.28515,0 -0.57031,0.0391 -0.85156,0.11719 -0.28516,0.0781 -0.54687,0.19531 -0.78516,0.35156 -0.23828,0.15625 -0.42968,0.36328 -0.57812,0.61328 -0.14453,0.25391 -0.21875,0.55078 -0.21875,0.89453 0,0.4961 0.15625,0.91407 0.47266,1.25391 0.3164,0.33984 0.79687,0.64062 1.44921,0.89844 0.29297,0.11718 0.54688,0.23047 0.76563,0.33984 0.21875,0.10938 0.40234,0.22656 0.55859,0.35156 0.15235,0.125 0.26953,0.26563 0.35157,0.41407 0.0781,0.15234 0.11718,0.32031 0.11718,0.51171 0,0.21094 -0.0391,0.39063 -0.11718,0.55079 -0.082,0.15625 -0.19532,0.28515 -0.33594,0.38671 -0.14453,0.10157 -0.3125,0.17579 -0.50391,0.22657 -0.19531,0.0508 -0.40234,0.0742 -0.625,0.0742 -0.29687,0 -0.61719,-0.0391 -0.96875,-0.11719 -0.34765,-0.0742 -0.69531,-0.19922 -1.03906,-0.36719 l -0.23047,0.78906 c 0.35547,0.16016 0.73047,0.27735 1.125,0.35157 0.39063,0.0742 0.75391,0.10937 1.08984,0.10937 0.32422,0 0.63282,-0.0391 0.92579,-0.11719 0.29296,-0.0742 0.55859,-0.19531 0.79687,-0.35937 0.23828,-0.16406 0.42969,-0.37891 0.57813,-0.64063 0.14453,-0.26172 0.21875,-0.57812 0.21875,-0.95312 0,-0.29297 -0.043,-0.55078 -0.13672,-0.76953 -0.0899,-0.22266 -0.22657,-0.42188 -0.40625,-0.59766 -0.1836,-0.17969 -0.40625,-0.33984 -0.66797,-0.48437 -0.26172,-0.14454 -0.57813,-0.28516 -0.94141,-0.42579 -0.29297,-0.10937 -0.53906,-0.22265 -0.73828,-0.33203 -0.19922,-0.10547 -0.35937,-0.21875 -0.48437,-0.33593 -0.1211,-0.11329 -0.21094,-0.23829 -0.26172,-0.3711 -0.0547,-0.13281 -0.0781,-0.28125 -0.0781,-0.44922 0,-0.21093 0.043,-0.39062 0.13672,-0.54297 0.0898,-0.14843 0.20703,-0.26953 0.35156,-0.35546 0.14453,-0.0899 0.30469,-0.15235 0.48047,-0.19141 0.17969,-0.0352 0.35938,-0.0586 0.54297,-0.0586 0.57422,0 1.12109,0.10937 1.64844,0.3164 z m 0,0"
     id="path4844" />
  <path
     d="m 78.199885,37.208076 h 1.50391 v 6.02735 h -1.50391 v 0.73437 h 3.90625 v -0.73437 h -1.48828 v -6.02735 h 1.48828 v -0.73437 h -3.90625 z m 0,0"
     id="path4846" />
  <path
     d="m 88.692075,36.610426 c -0.26563,-0.10157 -0.52344,-0.16797 -0.77344,-0.20704 -0.25,-0.0391 -0.52734,-0.0586 -0.83594,-0.0586 -0.51562,0.008 -0.97656,0.10547 -1.3789,0.29688 -0.40235,0.1875 -0.74219,0.45703 -1.01563,0.80859 -0.26953,0.34766 -0.47656,0.75781 -0.61719,1.22656 -0.14062,0.46875 -0.21093,0.98828 -0.21093,1.55469 0,0.56641 0.0703,1.08594 0.21093,1.55469 0.14063,0.46875 0.34375,0.875 0.60938,1.22265 0.26562,0.34375 0.58984,0.61328 0.96875,0.80078 0.38281,0.19141 0.8125,0.28516 1.28906,0.28516 0.3125,0 0.63672,-0.0352 0.96485,-0.0977 0.32812,-0.0703 0.64062,-0.1875 0.93359,-0.35546 v -3.71485 h -2.18359 v 0.76563 h 1.29296 v 2.48828 c -0.14062,0.0625 -0.28515,0.10547 -0.4375,0.12109 -0.14843,0.0195 -0.32812,0.0274 -0.53125,0.0274 -0.36328,0 -0.68359,-0.082 -0.95703,-0.24219 -0.27734,-0.16016 -0.50781,-0.38281 -0.69531,-0.66797 -0.18359,-0.28125 -0.32422,-0.60938 -0.41797,-0.98047 -0.0976,-0.37109 -0.14453,-0.76953 -0.14453,-1.19531 0,-0.46485 0.0547,-0.88281 0.16406,-1.26172 0.10938,-0.37891 0.26172,-0.70703 0.46094,-0.98828 0.19922,-0.27735 0.44531,-0.4961 0.73438,-0.64844 0.29296,-0.15625 0.61718,-0.23047 0.97265,-0.23047 0.2461,0 0.47266,0.0195 0.67578,0.0625 0.20703,0.0391 0.42188,0.1211 0.64844,0.24219 z m 0,0"
     id="path4848" />
  <path
     d="m 91.766295,36.473706 h -1.4375 v 7.49609 h 0.85937 v -6.58594 h 0.0234 l 2.55859,6.58594 h 1.41016 v -7.49609 h -0.86328 v 6.53125 h -0.0195 z m 0,0"
     id="path4850" />
  <path
     d="m 105.01629,38.258856 v 2.07813 h -2.10938 v 0.64844 h 2.10938 v 2.22656 h 0.68359 v -2.22656 h 2.10156 v -0.64844 h -2.10156 v -2.07813 z m 0,0"
     id="path4852" />
  <path
     d="m 120.77801,40.219796 c 0,-0.57422 -0.0781,-1.09375 -0.23047,-1.55859 -0.15625,-0.46485 -0.38282,-0.85938 -0.6836,-1.17969 -0.30078,-0.32422 -0.67187,-0.57031 -1.11718,-0.74609 -0.44532,-0.17579 -0.95704,-0.26172 -1.53907,-0.26172 h -1.71093 v 7.49609 h 1.71093 c 0.57422,0 1.08203,-0.0859 1.52735,-0.25781 0.44531,-0.17188 0.82031,-0.42188 1.125,-0.7461 0.30468,-0.32421 0.53125,-0.71875 0.6875,-1.17968 0.15234,-0.46094 0.23047,-0.98438 0.23047,-1.56641 m -0.91407,0 c 0,0.96484 -0.23047,1.70703 -0.69922,2.21484 -0.46484,0.51172 -1.16406,0.76954 -2.09375,0.76954 h -0.66015 v -5.96485 h 0.66015 c 0.95313,0.008 1.65625,0.26953 2.10938,0.79297 0.45703,0.51953 0.68359,1.25 0.68359,2.1875"
     id="path4854" />
  <path
     d="m 122.21551,43.969796 h 4.43359 v -0.76562 h -3.51953 v -2.71094 h 3.18359 v -0.76563 h -3.18359 v -2.48828 h 3.43359 v -0.76562 h -4.34765 z m 0,0"
     id="path4856" />
  <path
     d="m 129.90301,43.969796 h 1.26953 l 2.21484,-7.49609 h -0.97656 l -1.84766,6.66797 h -0.0195 l -1.85937,-6.66797 h -0.97657 z m 0,0"
     id="path4858" />
  <path
     d="m 134.81707,43.969796 h 4.42969 v -0.76562 h -3.51954 v -2.71094 h 3.1836 v -0.76563 h -3.1836 v -2.48828 h 3.4375 v -0.76562 h -4.34765 z m 0,0"
     id="path4860" />
  <path
     d="m 141.21941,43.969796 h 4.23438 v -0.76562 h -3.32032 v -6.73047 h -0.91406 z m 0,0"
     id="path4862" />
  <path
     d="m 152.32097,40.231516 c 0,-0.56641 -0.0586,-1.08594 -0.16796,-1.55859 -0.11329,-0.47266 -0.28516,-0.88672 -0.52344,-1.23438 -0.23047,-0.35156 -0.53516,-0.62109 -0.90625,-0.81641 -0.3711,-0.1914 -0.79688,-0.28906 -1.28125,-0.28906 -0.47656,0 -0.89844,0.0977 -1.26563,0.28906 -0.36718,0.19532 -0.66797,0.46875 -0.90234,0.82032 -0.23438,0.35547 -0.40625,0.76562 -0.51953,1.23437 -0.11328,0.46875 -0.16797,0.98828 -0.16797,1.55469 0,0.55859 0.0586,1.07812 0.17187,1.55469 0.11719,0.47656 0.29297,0.88672 0.52735,1.22656 0.23437,0.34375 0.53125,0.60937 0.88672,0.80469 0.35547,0.1914 0.78125,0.28906 1.26953,0.28906 0.49219,0 0.91797,-0.0977 1.28125,-0.28906 0.36328,-0.19532 0.66406,-0.46094 0.89844,-0.80469 0.23437,-0.33984 0.41015,-0.75 0.52343,-1.22656 0.11719,-0.47657 0.17578,-0.9961 0.17578,-1.55469 m -0.90625,0 c 0,0.44141 -0.0351,0.84375 -0.10937,1.20703 -0.0742,0.36328 -0.1875,0.6875 -0.34766,0.97266 -0.15625,0.28125 -0.35937,0.5039 -0.61328,0.66406 -0.25,0.16406 -0.55078,0.24219 -0.90234,0.24219 -0.34375,0 -0.63672,-0.0781 -0.88672,-0.24219 -0.25,-0.16016 -0.44922,-0.37891 -0.60547,-0.66016 -0.15234,-0.28125 -0.26562,-0.60547 -0.33984,-0.98047 -0.0742,-0.375 -0.10938,-0.77734 -0.10938,-1.20312 0,-0.42578 0.0352,-0.83203 0.10938,-1.20703 0.0742,-0.37891 0.1875,-0.71094 0.33984,-0.99219 0.15625,-0.28516 0.35547,-0.50781 0.60156,-0.66797 0.24219,-0.16015 0.53907,-0.24609 0.89063,-0.25 0.35156,0.004 0.65234,0.0899 0.90234,0.25 0.25391,0.16016 0.45703,0.38672 0.61328,0.67188 0.16016,0.28906 0.27344,0.61718 0.34766,0.99218 0.0742,0.375 0.10937,0.77735 0.10937,1.20313"
     id="path4864" />
  <path
     d="m 158.32488,38.594796 c 0,-0.40625 -0.0664,-0.74609 -0.19922,-1.01953 -0.13281,-0.27344 -0.3125,-0.49219 -0.53906,-0.65234 -0.23047,-0.16016 -0.49219,-0.27735 -0.78906,-0.34766 -0.29688,-0.0664 -0.61328,-0.10156 -0.94922,-0.10156 h -2.34375 v 7.49609 h 0.91406 v -3.14062 h 1.4375 c 0.33594,0 0.65234,-0.0391 0.94141,-0.11329 0.28906,-0.0781 0.55078,-0.20312 0.78125,-0.3789 0.23047,-0.17578 0.41406,-0.40625 0.54687,-0.69531 0.13281,-0.28516 0.19922,-0.63672 0.19922,-1.04688 m -0.91406,0.0273 c 0,0.28907 -0.043,0.52735 -0.12891,0.71094 -0.0898,0.1875 -0.20703,0.33203 -0.35547,0.44141 -0.14453,0.10937 -0.32031,0.18359 -0.52343,0.22656 -0.20313,0.0391 -0.41407,0.0625 -0.62891,0.0625 h -1.35547 v -2.82422 h 1.26172 c 0.23828,0 0.46094,0.0156 0.67187,0.0508 0.21094,0.0352 0.39454,0.10157 0.55079,0.19922 0.15625,0.10156 0.28125,0.23828 0.37109,0.42188 0.0937,0.18359 0.13672,0.41797 0.13672,0.71093"
     id="path4866" />
  <path
     d="m 160.94988,36.473706 h -1.57422 v 7.49609 h 0.85156 v -6.75391 h 0.0195 l 1.28125,5.97657 h 1.11328 l 1.17578,-5.97657 h 0.0195 v 6.75391 h 0.89453 v -7.49609 h -1.55469 l -1.05859,5.76172 h -0.0234 z m 0,0"
     id="path4868" />
  <path
     d="m 166.31707,43.969796 h 4.42969 v -0.76562 h -3.51563 v -2.71094 h 3.17969 v -0.76563 h -3.17969 v -2.48828 h 3.42969 v -0.76562 h -4.34375 z m 0,0"
     id="path4870" />
  <path
     d="m 173.66472,36.473706 h -1.4375 v 7.49609 h 0.85938 v -6.58594 h 0.0234 l 2.5625,6.58594 h 1.40625 v -7.49609 h -0.86328 v 6.53125 h -0.0195 z m 0,0"
     id="path4872" />
  <path
     d="m 180.52019,43.969796 h 0.91407 v -6.73047 h 2.20703 v -0.76562 h -5.37891 v 0.76562 h 2.25781 z m 0,0"
     id="path4874" />
</svg>
