<svg
   xmlns="http://www.w3.org/2000/svg"
   viewBox="0 0 250 30"
   height="30"
   width="250"
   xml:space="preserve"
   id="svg5566"
   version="1.1"><metadata
     id="metadata5572"><rdf:RDF><cc:Work
         rdf:about=""><dc:format>image/svg+xml</dc:format><dc:type
           rdf:resource="http://purl.org/dc/dcmitype/StillImage" /><dc:title></dc:title></cc:Work></rdf:RDF></metadata><defs
     id="defs5570"><clipPath
       id="clipPath5582"
       clipPathUnits="userSpaceOnUse"><path
         id="path5580"
         d="M 0,0 H 612 V 792 H 0 Z" /></clipPath></defs><g
     transform="matrix(1.3333333,0,0,-1.3333333,0,30)"
     id="g5574"><path
       d="m 17.740051,7.3909886 v 7.7180234 c 0,5.167152 -4.964566,7.390989 -8.9031224,7.390989 C 4.8983724,22.500001 0,20.276164 0,15.109012 V 7.3909886 C 0,2.2238373 4.8983724,0 8.8369286,0 12.775485,0 17.740051,2.2238373 17.740051,7.3909886 m -5.196246,0.4578489 c 0,-2.0930233 -1.522467,-3.3030525 -3.7068764,-3.3030525 -2.1513122,0 -3.6737793,1.2100292 -3.6737793,3.3030525 v 6.8023265 c 0,2.093023 1.5224671,3.303052 3.6737793,3.303052 2.1844094,0 3.7068764,-1.210029 3.7068764,-3.303052 z"
       id="path5586" /><g
       transform="matrix(1.0342847,0,0,1.021984,39.914805,16.122718)"
       id="g5588"><path
         id="path5590"
         d="m 0,0 c 0,3.008 -2.24,5.792 -7.456,5.792 h -8.96 c -0.736,0 -0.928,-0.352 -0.928,-0.928 v -19.232 c 0,-0.576 0.192,-0.928 0.928,-0.928 h 9.408 c 4.448,0 7.616,2.08 7.616,6.144 0,3.456 -2.688,4.672 -2.944,4.768 C -2.048,-4.256 0,-3.232 0,0 m -8.8,-3.36 v -2.432 c 0,-0.576 0.192,-0.928 0.928,-0.928 h 0.736 c 1.536,0 2.656,-0.448 2.656,-1.952 0,-1.44 -0.896,-2.08 -2.464,-2.08 H -12.32 V 1.28 h 4.864 c 1.664,0 2.656,-0.352 2.656,-1.792 0,-1.248 -0.8,-1.92 -2.656,-1.92 h -0.416 c -0.736,0 -0.928,-0.352 -0.928,-0.928" /></g><g
       transform="matrix(1.0342847,0,0,1.021984,58.283495,22.172864)"
       id="g5592"><path
         id="path5594"
         d="m 0,0 c -3.3185781,-0.01067747 -6.6388924,0.02145717 -9.956375,-0.01625 -0.773289,-0.05682793 -0.669066,-0.92535796 -0.667625,-1.4892266 0.01719,-0.8218295 -0.03877,-1.6485046 0.037,-2.4665234 0.214512,-0.7413096 1.0944331,-0.4965337 1.6784681,-0.54 1.6041773,0 3.2083546,0 4.8125319,0 -0.00611,-3.1606749 0.012367,-6.321759 -0.0095,-9.482172 0.0085,-1.152718 -0.6292625,-2.421541 -1.8495,-2.654437 -1.1546318,-0.30136 -2.6972937,-0.11735 -3.26675,1.083992 -0.5095729,0.681655 0.034313,2.193803 -1.198748,2.124617 -1.193896,-0.01887 -2.393973,0.03871 -3.583814,-0.03056 -1.046353,-0.699194 -0.331029,-2.304101 -0.138714,-3.319102 0.736469,-2.361972 3.020091,-3.940664 5.4046958,-4.284754 2.8068355,-0.433573 6.0121048,0.10787 8.04180322,2.236837 C 0.62502843,-17.465339 1.015279,-15.499156 0.928,-13.653526 0.921572,-9.3433419 0.9408757,-5.0325512 0.918312,-0.722748 0.9178026,-0.2200715 0.45570129,0.03462079 0,0 Z"
          /></g><g
       transform="matrix(1.0342847,0,0,1.021984,79.696912,5.0689386)"
       id="g5596"><path
         id="path5598"
         d="m 0,0 c -3.4026667,0 -6.8053333,0 -10.208,0 0,1.408 0,2.816 0,4.224 2.9421745,0.01069 5.8861452,-0.021475 8.8271875,0.01625 0.80076607,0.071176 0.67170062,0.9684811 0.6768125,1.5492363 -0.0362506,0.8009538 0.0887643,1.6247483 -0.0995625,2.4052637 -0.3970207,0.5837433 -1.184776,0.3215775 -1.7846669,0.38125 -2.5399236,0 -5.0798471,0 -7.6197706,0 0,1.1626667 0,2.325333 0,3.488 3.3048422,0.01067 6.6114771,-0.02144 9.9151875,0.01625 0.80076607,0.07118 0.67170062,0.968481 0.6768125,1.549236 -0.0184969,0.801796 0.0422993,1.609419 -0.0415,2.406514 -0.22166949,0.733708 -1.09840508,0.499497 -1.6833579,0.54 -4.3755965,-0.0027 -8.7513621,0.0055 -13.1268531,-0.0041 -0.855665,0.02845 -0.819372,-0.900702 -0.796289,-1.508268 0.0064,-6.2735538 -0.0129,-12.5477153 0.0097,-18.820888 0.02589,-0.8022107 0.923017,-0.7355847 1.502675,-0.72275 4.6277622,0.00272 9.2556932,-0.00545 13.88334894,0.00409 C 0.98737646,-4.5043513 0.95108316,-3.5752037 0.928,-2.9676376 0.90861837,-2.1588619 0.97165169,-1.3440423 0.8865,-0.54 0.80969518,-0.1267834 0.36960416,0.01560135 0,0 Z"
          /></g><g
       transform="matrix(1.0342847,0,0,1.021984,101.44161,6.8675284)"
       id="g5600"><path
         id="path5602"
         d="M 0,0 C 0.15139538,0.86078511 -0.69245617,1.2091815 -1.4040336,1.088 -2.3793694,1.0737827 -3.3584353,1.1172561 -4.3313125,1.06475 -5.2544677,0.64275105 -4.7492931,-0.75248548 -5.5898359,-1.3407734 -6.689288,-2.358441 -8.391209,-2.4026445 -9.766,-2.028 c -1.387898,0.3709906 -2.239175,1.81518398 -2.106,3.2100168 0.01037,2.2672442 -0.02123,4.5356895 0.01669,6.8021473 0.06094,1.5456534 1.467772,2.7205609 2.9596636,2.8009069 C -7.4751103,10.944465 -5.7788776,10.64334 -5.024,9.28 c 0.1714905,-0.7415139 0.7958298,-1.1238534 1.515042,-0.992 0.9937714,0.018527 1.9920752,-0.040726 2.982458,0.037 1.07441632,0.5589328 0.25226444,2.102119 -0.0557578,2.961211 -1.3062923,2.647518 -4.3695138,3.877244 -7.1803124,3.996497 -3.1088968,0.143669 -6.5423108,-1.046008 -8.2315398,-3.799876 -0.888558,-1.382791 -0.941551,-3.052085 -0.90189,-4.6399245 0.01805,-2.339396 -0.03767,-4.6810228 0.03084,-7.01890762 0.165363,-2.61782418 2.131291,-4.80916468 4.510513,-5.73658488 3.5990898,-1.5479945 8.2157616,-0.8616245 10.8882735,2.1062226 C -0.54390608,-2.7649406 0.01254916,-1.3980676 0,0 Z"
          /></g><g
       transform="matrix(1.0342847,0,0,1.021984,120.30655,22.009346)"
       id="g5604"><path
         id="path5606"
         d="m 0,0 c -4.9932158,-0.00272928 -9.9866012,0.00545851 -14.979711,-0.00409375 -0.859069,0.02786808 -0.818563,-0.90613878 -0.796289,-1.51520255 0.01949,-0.8171234 -0.04382,-1.6403173 0.0415,-2.4527037 0.223952,-0.7365654 1.105303,-0.4983098 1.692813,-0.54 1.373896,0 2.747791,0 4.121687,0 0.00273,-5.2492158 -0.00546,-10.498601 0.00409,-15.747711 -0.027868,-0.859069 0.9061388,-0.818563 1.5152026,-0.796289 0.9877247,0.02056 1.9817455,-0.04536 2.9647037,0.0415 0.7365654,0.223952 0.4983098,1.105303 0.54,1.692813 0,4.936562 0,9.8731247 0,14.809687 1.7155129,0.010547 3.4328051,-0.021284 5.1471875,0.01625 0.8039434,0.0723 0.67074184,0.9742758 0.6768125,1.5568005 C 0.90872787,-2.13973 0.9714882,-1.3344894 0.8865,-0.54 0.80969518,-0.1267834 0.36960416,0.01560135 0,0 Z"
         /></g><g
       transform="matrix(1.0342847,0,0,1.021984,140.36309,5.0689386)"
       id="g5608"><path
         id="path5610"
         d="m 0,0 c -3.4026667,0 -6.8053333,0 -10.208,0 0,1.408 0,2.816 0,4.224 2.9421745,0.01069 5.8861452,-0.021475 8.8271875,0.01625 0.80076607,0.071176 0.67170062,0.9684811 0.6768125,1.5492363 -0.0362506,0.8009538 0.0887643,1.6247483 -0.0995625,2.4052637 -0.3970207,0.5837433 -1.184776,0.3215775 -1.7846669,0.38125 -2.5399236,0 -5.0798471,0 -7.6197706,0 0,1.1626667 0,2.325333 0,3.488 3.3048422,0.01067 6.6114771,-0.02144 9.9151875,0.01625 0.80076607,0.07118 0.67170062,0.968481 0.6768125,1.549236 -0.0184969,0.801796 0.0422993,1.609419 -0.0415,2.406514 -0.22166949,0.733708 -1.09840508,0.499497 -1.6833579,0.54 -4.3755965,-0.0027 -8.7513621,0.0055 -13.1268531,-0.0041 -0.855665,0.02845 -0.819372,-0.900702 -0.796289,-1.508268 0.0064,-6.2735538 -0.0129,-12.5477153 0.0097,-18.820888 0.02589,-0.8022107 0.923017,-0.7355847 1.502675,-0.72275 4.6277622,0.00272 9.2556932,-0.00545 13.88334894,0.00409 C 0.98737646,-4.5043513 0.95108316,-3.5752037 0.928,-2.9676376 0.90861837,-2.1588619 0.97165169,-1.3440423 0.8865,-0.54 0.80969518,-0.1267834 0.36960416,0.01560135 0,0 Z"
          /></g><g
       transform="matrix(1.0342847,0,0,1.021984,164.06052,1.4061478)"
       id="g5612"><path
         id="path5614"
         d="M 0,0 C -2.3782373,6.4288406 -4.73447,12.866645 -7.1264609,19.289883 -7.3662636,20.071341 -8.1988176,20.227675 -8.9072918,20.16 -9.9112987,20.13043 -10.926427,20.2255 -11.922,20.0995 c -0.875309,-0.332015 -0.941623,-1.381765 -1.290531,-2.130932 -2.235884,-6.039494 -4.480453,-12.0758783 -6.710907,-18.117318 -0.252182,-0.80429403 0.710424,-0.78017657 1.235017,-0.74725 1.056612,0.0215445 2.119239,-0.0469544 3.171421,0.042 0.777017,0.25632647 0.793481,1.20511803 1.095206,1.84965321 0.188598,0.53211559 0.377196,1.06423119 0.565794,1.59634679 2.613333,0 5.2266667,0 7.84,0 0.3700493,-0.9985546 0.6815014,-2.02148323 1.095,-3.002 0.431718,-0.7254306 1.3648236,-0.41977699 2.0635836,-0.486 0.8481091,0.0134137 1.6997508,-0.0279276 2.5454789,0.02275 C 0.11874065,-0.815123 0.15911627,-0.31598561 0,0 Z m -7.52,7.072 c -1.6,0 -3.2,0 -4.8,0 0.8,2.3573333 1.6,4.714667 2.4,7.072 0.8,-2.357333 1.6,-4.7146667 2.4,-7.072 z"
         /></g><g
       transform="matrix(1.0342847,0,0,1.021984,186.53356,22.041948)"
       id="g5616"><path
         id="path5618"
         d="M 0,0 C -1.1421977,-0.01774976 -2.2885146,0.03733198 -3.427875,-0.031 -4.3340132,-0.19822717 -4.5044903,-1.2371246 -4.9649603,-1.895451 -6.2859735,-4.2503007 -7.6069868,-6.6051503 -8.928,-8.96 c -1.559624,2.7943057 -3.108735,5.5948711 -4.675375,8.385 -0.521143,0.81841259 -1.582536,0.51580922 -2.395769,0.575 -0.801953,-0.02855081 -1.616193,0.06521452 -2.408356,-0.064 -0.699141,-0.30701898 -0.411152,-1.1834489 -0.4725,-1.789824 0.0027,-6.1459411 -0.0055,-12.292052 0.0041,-18.437887 -0.0239,-0.880982 0.941603,-0.813095 1.56041,-0.796289 0.972634,0.02082 1.951638,-0.04575 2.919496,0.0415 0.754657,0.239063 0.490556,1.150167 0.54,1.75446 0,3.32668 0,6.65336 0,9.98004 1.127963,-1.93521 2.223163,-3.890728 3.372,-5.813 0.433175,-0.688276 1.2994496,-0.39638 1.971144,-0.459 0.6339094,-0.110141 1.1890596,0.296334 1.4276903,0.87296 1.0283886,1.79968 2.0567771,3.59936 3.0851657,5.39904 0.010748,-3.699506 -0.021553,-7.400815 0.01625,-11.099188 0.090044,-0.847717 1.0554658,-0.65592 1.663982,-0.676812 0.902034,0.02111 1.81052339,-0.04619 2.707768,0.0415 0.7546569,0.239063 0.49055601,1.150167 0.54,1.75446 C 0.92156,-13.102353 0.9409059,-6.9120567 0.918318,-0.72275 0.9178026,-0.2200715 0.45570129,0.03462079 0,0 Z"
         /></g></g></svg>