<svg
   xmlns="http://www.w3.org/2000/svg"
   viewBox="0 0 206 46.5"
   xml:space="preserve"
   id="svg4485"
   version="1.1"><metadata
     id="metadata4491"><rdf:RDF><cc:Work
         rdf:about=""><dc:format>image/svg+xml</dc:format><dc:type
           rdf:resource="http://purl.org/dc/dcmitype/StillImage" /><dc:title></dc:title></cc:Work></rdf:RDF></metadata><defs
     id="defs4489"><clipPath
       id="clipPath4501"
       clipPathUnits="userSpaceOnUse"><path
         id="path4499"
         d="M 0,0 H 612 V 792 H 0 Z" /></clipPath><clipPath
       id="clipPath4775"
       clipPathUnits="userSpaceOnUse"><path
         id="path4773"
         d="M 0,0 H 612 V 792 H 0 Z" /></clipPath><clipPath
       id="clipPath4755"
       clipPathUnits="userSpaceOnUse"><path
         id="path4753"
         d="M 0,0 H 612 V 792 H 0 Z" /></clipPath><clipPath
       id="clipPath4739"
       clipPathUnits="userSpaceOnUse"><path
         id="path4737"
         d="M 0,0 H 612 V 792 H 0 Z" /></clipPath><clipPath
       id="clipPath4723"
       clipPathUnits="userSpaceOnUse"><path
         id="path4721"
         d="M 0,0 H 612 V 792 H 0 Z" /></clipPath><clipPath
       id="clipPath4707"
       clipPathUnits="userSpaceOnUse"><path
         id="path4705"
         d="M 0,0 H 612 V 792 H 0 Z" /></clipPath><clipPath
       id="clipPath4639"
       clipPathUnits="userSpaceOnUse"><path
         id="path4637"
         d="M 0,0 H 612 V 792 H 0 Z" /></clipPath></defs><g
     transform="matrix(1.3333333,0,0,-1.3333333,0,46.499996)"
     id="g4493"><g
       id="g4633"
       transform="matrix(1.0034349,0,0,1.0034349,-231.79686,-379.11624)"><g
         clip-path="url(#clipPath4639)"
         id="g4635"><g
           transform="translate(293.7678,378.1788)"
           id="g4641"><path
             id="path4643"
             d="M 0,0 -1.685,5.198 H -2.766 L -4.451,0 h 0.938 l 0.405,1.407 h 1.733 L -0.978,0 Z m -1.582,2.13 h -1.319 l 0.183,0.636 c 0.159,0.549 0.318,1.137 0.461,1.718 h 0.031 c 0.143,-0.581 0.31,-1.169 0.461,-1.718 z" /></g><g
           transform="translate(247.6053,396.9103)"
           id="g4645"><path
             id="path4647"
             d="m 0,0 c 0,5.376 -3.168,8.064 -8,8.064 -4.928,0 -8.256,-2.976 -8.256,-8.288 0,-5.408 3.392,-8.32 7.968,-8.32 C -3.456,-8.544 0,-5.408 0,0 m -5.632,-2.048 c 0,-3.136 -0.672,-4.448 -2.08,-4.448 -1.376,0 -2.912,2.112 -2.912,7.936 0,3.392 0.704,4.576 1.984,4.576 1.408,0 3.008,-2.208 3.008,-8.064" /></g><g
           transform="translate(267.6692,396.7823)"
           id="g4649"><path
             id="path4651"
             d="m 0,0 c 0,5.472 -2.816,8.192 -6.336,8.192 -1.792,0 -3.264,-0.608 -4.544,-1.856 v 4.032 l 0.128,4.448 -0.544,0.352 -7.296,-1.44 v -1.44 l 1.728,-0.224 v -13.28 c 0,-1.312 0,-3.232 -0.032,-4.768 l -1.44,-0.32 v -1.632 l 6.56,-0.48 0.64,1.792 C -10.112,-7.776 -8.8,-8.416 -6.944,-8.416 -3.392,-8.416 0,-5.248 0,0 m -6.464,0 c 0,-3.648 -1.12,-5.344 -2.816,-5.344 -0.608,0 -1.088,0.16 -1.504,0.448 v 9.44 c 0.448,0.288 0.96,0.48 1.504,0.48 1.696,0 2.816,-1.376 2.816,-5.024" /></g><g
           transform="translate(273.5888,406.8623)"
           id="g4653"><path
             id="path4655"
             d="M 0,0 C 1.632,0 2.944,1.152 2.944,2.752 2.944,4.352 1.632,5.504 0,5.504 -1.632,5.504 -2.944,4.352 -2.944,2.752 -2.944,1.152 -1.632,0 0,0" /></g><g
           transform="translate(270.6128,391.3103)"
           id="g4657"><path
             id="path4659"
             d="M 0,0 C 0,-2.112 0.384,-5.28 0.096,-6.912 0.064,-7.168 0,-7.36 -0.096,-7.552 l -0.256,0.576 c -0.704,1.504 -1.856,2.24 -3.104,2.24 -1.408,0 -2.912,-0.992 -3.008,-2.752 0.672,-1.28 2.176,-2.368 4.608,-2.368 1.536,0 3.936,0.448 5.792,2.304 1.504,1.504 2.144,2.976 2.144,6.24 V 8.544 L 6.176,13.312 5.6,13.664 -1.824,11.456 V 10.144 L -0.096,9.856 C -0.032,8.576 0,7.584 0,5.824 Z" /></g><g
           transform="translate(294.8045,397.9663)"
           id="g4661"><path
             id="path4663"
             d="m 0,0 c 0,3.872 -2.304,7.008 -6.88,7.008 -4.192,0 -8.608,-2.752 -8.608,-8.256 0,-5.28 3.52,-8.352 8.32,-8.352 3.168,0 5.568,1.152 6.944,3.744 l -1.248,1.216 c -0.896,-0.864 -2.048,-1.504 -3.648,-1.504 -1.888,0 -3.616,1.312 -3.936,4.448 H -0.16 C -0.032,-1.12 0,-0.672 0,0 m -5.632,2.272 c 0,-1.632 -0.416,-2.144 -1.952,-2.144 h -1.504 c 0.096,3.968 0.832,5.152 1.824,5.152 0.832,0 1.632,-0.8 1.632,-3.008" /></g><g
           transform="translate(306.0361,403.2463)"
           id="g4665"><path
             id="path4667"
             d="M 0,0 H 0.128 L 0.192,-1.344 C 0.32,-4.16 1.6,-4.992 2.944,-4.992 c 1.28,0 2.016,0.576 2.432,1.856 -0.16,2.624 -2.528,4.864 -6.112,4.864 -5.152,0 -9.152,-3.04 -9.152,-8.352 0,-5.568 3.936,-8.256 8.288,-8.256 3.04,0 5.44,1.152 6.816,3.744 L 3.968,-9.92 c -0.896,-0.864 -1.856,-1.504 -3.264,-1.504 -2.56,0 -4.192,1.952 -4.192,5.504 C -3.488,-1.504 -1.472,0 0,0" /></g><g
           transform="translate(318.8999,388.4943)"
           id="g4669"><path
             id="path4671"
             d="M 0,0 C 1.792,0 3.136,0.384 4.032,0.704 L 3.136,4.288 C 2.752,4.096 2.368,3.968 1.984,3.968 c -1.024,0 -1.536,0.448 -1.536,1.408 0,0.32 0,0.64 0.064,1.024 l 1.216,6.016 H 5.312 L 6.08,16.384 H 2.624 l 0.768,4.096 h -4.288 l -1.408,-4.096 -2.304,-0.192 -0.768,-3.776 h 2.048 L -4.544,6.592 C -4.672,5.888 -4.8,5.184 -4.8,4.48 -4.8,1.856 -3.392,0 0,0" /></g><g
           transform="translate(340.1475,397.5183)"
           id="g4673"><path
             id="path4675"
             d="m 0,0 c 0,4.288 -2.24,7.744 -6.976,7.744 -3.904,0 -7.68,-3.2 -7.68,-8.384 0,-5.312 3.584,-8.384 8.256,-8.384 1.792,0 4.096,0.64 5.824,1.856 l -1.792,3.264 c -1.152,-0.64 -2.176,-0.96 -3.264,-0.96 -1.792,0 -3.2,0.64 -3.712,2.56 h 9.12 C -0.128,-1.92 0,-0.96 0,0 m -4.672,1.28 h -4.736 c 0.32,1.6 1.344,2.304 2.56,2.304 1.664,0 2.176,-1.088 2.176,-2.304" /></g><g
           transform="translate(356.4032,388.8784)"
           id="g4677"><path
             id="path4679"
             d="m 0,0 v 8.896 c 0,5.248 -2.496,7.488 -6.656,7.488 -2.496,0 -4.8,-0.768 -7.04,-2.112 l 1.92,-3.584 c 1.664,0.896 2.88,1.344 4.032,1.344 1.408,0 2.112,-0.512 2.24,-1.664 -6.144,-0.64 -8.704,-2.496 -8.704,-5.824 0,-2.624 1.792,-4.928 4.8,-4.928 1.728,0 3.136,0.768 4.416,1.92 h 0.128 L -4.48,0 Z M -5.504,4.928 C -6.08,4.288 -6.592,3.84 -7.488,3.84 c -0.96,0 -1.472,0.416 -1.472,1.152 0,0.896 0.832,1.728 3.456,2.112 z" /></g><g
           transform="translate(359.9871,388.8783)"
           id="g4681"><path
             id="path4683"
             d="m 0,0 h 5.504 v 10.496 c 0.832,0.832 1.6,1.216 2.24,1.216 1.088,0 1.6,-0.512 1.6,-2.56 V 0 h 5.504 v 10.496 c 0.832,0.832 1.6,1.216 2.24,1.216 1.088,0 1.6,-0.512 1.6,-2.56 V 0 h 5.504 v 9.856 c 0,3.968 -1.536,6.528 -5.056,6.528 -2.176,0 -3.616,-1.216 -4.928,-2.56 -0.864,1.664 -2.24,2.56 -4.416,2.56 -2.176,0 -3.52,-1.088 -4.8,-2.336 H 4.864 L 4.48,16 H 0 Z" /></g><g
           transform="translate(282.4313,378.0834)"
           id="g4685"><path
             id="path4687"
             d="M 0,0 C 0.692,0 1.24,0.27 1.654,0.754 L 1.145,1.319 C 0.851,0.993 0.509,0.802 0.087,0.802 c -0.89,0 -1.478,0.716 -1.478,1.901 0,1.168 0.588,1.884 1.455,1.884 0.405,0 0.715,-0.167 0.977,-0.421 L 1.55,4.738 C 1.224,5.079 0.708,5.389 0.064,5.389 c -1.376,0 -2.4,-1.009 -2.4,-2.71 C -2.336,0.953 -1.288,0 0,0" /></g><g
           transform="translate(288.7037,381.8354)"
           id="g4689"><path
             id="path4691"
             d="m 0,0 c 0,1.161 -0.834,1.542 -1.915,1.542 h -1.733 v -5.199 h 0.921 v 2.036 h 0.78 l 1.113,-2.036 h 1.041 l -1.24,2.171 C -0.413,-1.272 0,-0.788 0,0 m -0.905,0 c 0,-0.589 -0.39,-0.891 -1.106,-0.891 h -0.716 v 1.694 h 0.716 c 0.716,0 1.106,-0.206 1.106,-0.803" /></g></g></g><g
       transform="matrix(1.0034349,0,0,1.0034349,64.798702,0.09624084)"
       id="g4693"><path
         id="path4695"
         d="M 0,0 H 0.921 V 2.17 H 2.964 V 2.948 H 0.921 V 4.42 H 3.322 V 5.198 H 0 Z" /></g><g
       transform="matrix(1.0034349,0,0,1.0034349,70.566242,0.09624084)"
       id="g4697"><path
         id="path4699"
         d="M 0,0 H 0.921 V 4.42 H 2.559 V 5.198 H -1.638 V 4.42 H 0 Z" /></g><g
       id="g4701"
       transform="matrix(1.0034349,0,0,1.0034349,-231.08796,-379.3816)"><g
         clip-path="url(#clipPath4707)"
         id="g4703"><g
           transform="translate(305.8679,378.0834)"
           id="g4709"><path
             id="path4711"
             d="m 0,0 c 1.209,0 1.923,0.699 1.923,1.542 0,0.755 -0.468,1.145 -1.128,1.407 L 0.111,3.243 c -0.469,0.183 -0.891,0.334 -0.891,0.732 0,0.389 0.335,0.612 0.828,0.612 0.525,0 0.891,-0.167 1.24,-0.445 L 1.765,4.73 c -0.429,0.405 -1.033,0.659 -1.67,0.659 -1.057,0 -1.804,-0.635 -1.804,-1.462 0,-0.763 0.564,-1.169 1.112,-1.384 L 0.111,2.233 C 0.628,2.019 0.986,1.891 0.986,1.43 0.986,1.064 0.66,0.802 0.056,0.802 -0.493,0.802 -1.01,1.041 -1.399,1.39 L -1.939,0.762 C -1.423,0.278 -0.732,0 0,0" /></g></g></g><g
       transform="matrix(1.0034349,0,0,1.0034349,85.036775,0.88603948)"
       id="g4713"><path
         id="path4715"
         d="M 0,0 H 0.699 V 1.503 H 2.114 V 2.169 H 0.699 V 3.672 H 0 V 2.169 H -1.415 V 1.503 H 0 Z" /></g><g
       id="g4717"
       transform="matrix(1.0034349,0,0,1.0034349,-231.08796,-379.3816)"><g
         clip-path="url(#clipPath4723)"
         id="g4719"><g
           transform="translate(326.9823,380.8019)"
           id="g4725"><path
             id="path4727"
             d="m 0,0 c 0,1.718 -0.913,2.575 -2.448,2.575 h -1.367 v -5.198 h 1.414 C -0.913,-2.623 0,-1.726 0,0 m -0.945,0 c 0,-1.28 -0.565,-1.877 -1.559,-1.877 h -0.39 v 3.706 h 0.39 c 0.994,0 1.559,-0.557 1.559,-1.829" /></g></g></g><g
       transform="matrix(1.0034349,0,0,1.0034349,98.175154,0.09624084)"
       id="g4729"><path
         id="path4731"
         d="M 0,0 H 3.41 V 0.778 H 0.921 V 2.313 H 2.964 V 3.092 H 0.921 V 4.42 H 3.33 V 5.198 H 0 Z" /></g><g
       id="g4733"
       transform="matrix(1.0034349,0,0,1.0034349,-231.08796,-379.3816)"><g
         clip-path="url(#clipPath4739)"
         id="g4735"><g
           transform="translate(334.4874,378.0834)"
           id="g4741"><path
             id="path4743"
             d="m 0,0 c 1.209,0 1.923,0.699 1.923,1.542 0,0.755 -0.468,1.145 -1.128,1.407 L 0.111,3.243 c -0.469,0.183 -0.891,0.334 -0.891,0.732 0,0.389 0.335,0.612 0.828,0.612 0.525,0 0.891,-0.167 1.24,-0.445 L 1.765,4.73 c -0.429,0.405 -1.033,0.659 -1.67,0.659 -1.057,0 -1.804,-0.635 -1.804,-1.462 0,-0.763 0.564,-1.169 1.112,-1.384 L 0.111,2.233 C 0.628,2.019 0.986,1.891 0.986,1.43 0.986,1.064 0.66,0.802 0.056,0.802 -0.493,0.802 -1.01,1.041 -1.399,1.39 L -1.939,0.762 C -1.423,0.278 -0.732,0 0,0" /></g></g></g><g
       transform="matrix(1.0034349,0,0,1.0034349,107.5961,0.09624084)"
       id="g4745"><path
         id="path4747"
         d="M 0,0 H 3.433 V 0.778 H 2.177 V 4.42 H 3.433 V 5.198 H 0 V 4.42 H 1.256 V 0.778 H 0 Z" /></g><g
       id="g4749"
       transform="matrix(1.0034349,0,0,1.0034349,-231.08796,-379.3816)"><g
         clip-path="url(#clipPath4755)"
         id="g4751"><g
           transform="translate(344.3295,378.0834)"
           id="g4757"><path
             id="path4759"
             d="m 0,0 c 0.668,0 1.256,0.286 1.589,0.619 v 2.29 H -0.143 V 2.154 H 0.756 V 1.033 C 0.604,0.882 0.334,0.802 0.056,0.802 c -0.923,0 -1.424,0.716 -1.424,1.9 0,1.169 0.581,1.885 1.408,1.885 0.453,0 0.724,-0.175 0.962,-0.421 L 1.51,4.738 C 1.2,5.064 0.732,5.389 0.04,5.389 -1.312,5.389 -2.321,4.388 -2.321,2.678 -2.321,0.953 -1.32,0 0,0" /></g><g
           transform="translate(346.9851,378.1788)"
           id="g4761"><path
             id="path4763"
             d="m 0,0 h 0.881 v 2.273 c 0,0.581 -0.087,1.201 -0.127,1.758 H 0.778 L 1.247,2.926 2.623,0 H 3.592 V 5.198 H 2.711 V 2.941 C 2.711,2.36 2.798,1.7 2.838,1.168 H 2.814 L 2.345,2.281 0.969,5.198 H 0 Z" /></g></g></g><g
       transform="matrix(1.0034349,0,0,1.0034349,128.11343,0.88603948)"
       id="g4765"><path
         id="path4767"
         d="M 0,0 H 0.699 V 1.503 H 2.114 V 2.169 H 0.699 V 3.672 H 0 V 2.169 H -1.415 V 1.503 H 0 Z" /></g><g
       id="g4769"
       transform="matrix(1.0034349,0,0,1.0034349,-231.08796,-379.3816)"><g
         clip-path="url(#clipPath4775)"
         id="g4771"><g
           transform="translate(368.2897,378.0834)"
           id="g4777"><path
             id="path4779"
             d="M 0,0 C 0.692,0 1.24,0.27 1.654,0.754 L 1.145,1.319 C 0.851,0.993 0.509,0.802 0.087,0.802 c -0.89,0 -1.478,0.716 -1.478,1.901 0,1.168 0.588,1.884 1.455,1.884 0.405,0 0.715,-0.167 0.977,-0.421 L 1.55,4.738 C 1.224,5.079 0.708,5.389 0.064,5.389 c -1.376,0 -2.4,-1.009 -2.4,-2.71 C -2.336,0.953 -1.288,0 0,0" /></g><g
           transform="translate(374.6734,380.8019)"
           id="g4781"><path
             id="path4783"
             d="M 0,0 C 0,1.71 -0.834,2.671 -2.043,2.671 -3.251,2.671 -4.085,1.71 -4.085,0 c 0,-1.741 0.834,-2.719 2.042,-2.719 C -0.834,-2.719 0,-1.741 0,0 m -0.945,0 c 0,-1.225 -0.429,-1.917 -1.098,-1.917 -0.668,0 -1.097,0.692 -1.097,1.917 0,1.193 0.429,1.869 1.097,1.869 0.669,0 1.098,-0.676 1.098,-1.869" /></g><g
           transform="translate(379.4513,380.8019)"
           id="g4785"><path
             id="path4787"
             d="m 0,0 c 0,1.718 -0.913,2.575 -2.448,2.575 h -1.367 v -5.198 h 1.414 C -0.913,-2.623 0,-1.726 0,0 m -0.945,0 c 0,-1.28 -0.565,-1.877 -1.559,-1.877 h -0.39 v 3.706 h 0.39 c 0.994,0 1.559,-0.557 1.559,-1.829" /></g></g></g><g
       transform="matrix(1.0034349,0,0,1.0034349,150.82437,0.09624084)"
       id="g4789"><path
         id="path4791"
         d="M 0,0 H 3.41 V 0.778 H 0.921 V 2.313 H 2.964 V 3.092 H 0.921 V 4.42 H 3.33 V 5.198 H 0 Z" /></g></g></svg>